# xmcd
#
# Track frame offsets: 
#        150
#        10991
#        23303
#        34242
#        47015
#        61548
#        73814
#        86318
#        99263
#        110716
#
# Disc length: 1670 seconds
#
# Revision: 0
# Processed by: cddbd v1.5.2PL0 Copyright (c) Steve Scherf et al.
# Submitted via: ExactAudioCopy v0.99pb4
#
DISCID=6f06840a
DTITLE=Joe Simon - Chokin' Kind
DYEAR=1900
DGENRE=Soul
TTITLE0=Don't Let Me Lose The Feeling
TTITLE1=Chokin' Kind
TTITLE2=Help Yourself (To All My Lovin')
TTITLE3=(You Keep Me) Hangin 'On
TTITLE4=Farther On Down The Road
TTITLE5=Baby Don't Be Lookin' In My Mind
TTITLE6=In The Ghetto
TTITLE7=(Sittin' On) The Dock Of The Bay
TTITLE8=I Got A Whole Lot Of Lovin'
TTITLE9=Misty Blue
EXTD=
EXTT0=
EXTT1=
EXTT2=
EXTT3=
EXTT4=
EXTT5=
EXTT6=
EXTT7=
EXTT8=
EXTT9=
PLAYORDER=
